<svg width="38" height="37" viewBox="0 0 38 37" fill="none" xmlns="http://www.w3.org/2000/svg">
<path d="M9.95833 35.5H27.875M24.3508 13.3433C24.5267 13.4523 24.6728 13.6088 24.7744 13.7972C24.8759 13.9855 24.9294 14.1992 24.9294 14.4167C24.9294 14.6341 24.8759 14.8478 24.7744 15.0362C24.6728 15.2246 24.5267 15.3811 24.3508 15.49L17.0677 19.998C16.8918 20.1069 16.6922 20.1642 16.489 20.1642C16.2858 20.1642 16.0862 20.1069 15.9103 19.998C15.7344 19.8892 15.5884 19.7326 15.4871 19.5442C15.3858 19.3557 15.3328 19.142 15.3333 18.9247V9.90867C15.333 9.69157 15.3861 9.4782 15.4873 9.29002C15.5885 9.10185 15.7342 8.9455 15.9098 8.8367C16.0854 8.7279 16.2847 8.6705 16.4877 8.67026C16.6906 8.67002 16.89 8.72695 17.0659 8.83533L24.3508 13.3433ZM4.58333 1H33.25C35.229 1 36.8333 2.71624 36.8333 4.83333V24C36.8333 26.1171 35.229 27.8333 33.25 27.8333H4.58333C2.60431 27.8333 1 26.1171 1 24V4.83333C1 2.71624 2.60431 1 4.58333 1Z" stroke="#A478ED" stroke-width="2" stroke-linecap="round" stroke-linejoin="round"/>
</svg>
