<svg width="22" height="19" viewBox="0 0 22 19" fill="none" xmlns="http://www.w3.org/2000/svg">
<path d="M2.12766 0L4.25532 4.58015H7.44681L5.31915 0H7.44681L9.57447 4.58015H12.766L10.6383 0H12.766L14.8936 4.58015H18.0851L15.9574 0H19.1489C19.734 0 20.2351 0.224427 20.6521 0.673282C21.0691 1.12214 21.2773 1.66107 21.2766 2.29008V16.0305C21.2766 16.6603 21.0684 17.1996 20.6521 17.6485C20.2358 18.0973 19.7348 18.3214 19.1489 18.3206H2.12766C1.54255 18.3206 1.04184 18.0966 0.625532 17.6485C0.20922 17.2004 0.00070922 16.6611 0 16.0305V2.29008C0 1.66031 0.208511 1.12137 0.625532 0.673282C1.04255 0.225191 1.54326 0.000763359 2.12766 0Z" fill="#3A1180"/>
</svg>
