<svg width="148" height="148" viewBox="0 0 148 148" fill="none" xmlns="http://www.w3.org/2000/svg">
<path fill-rule="evenodd" clip-rule="evenodd" d="M70.5037 101.528L77.9222 94.1157L94.1159 77.922L101.528 70.5035C109.126 62.9185 112.918 59.1199 112.024 55.0375C111.13 50.9552 106.085 49.099 96.0152 45.3867L62.4069 33.0102C42.3097 25.604 32.2642 21.8917 27.0842 27.0717C21.9042 32.2517 25.6042 42.3033 33.0165 62.4067L45.3869 96.015C49.0992 106.085 50.9554 111.123 55.0377 112.024C59.12 112.924 62.9125 109.125 70.5037 101.528Z" fill="#A478ED"/>
<path opacity="0.5" d="M77.9219 94.1157L102.206 118.4C104.722 120.916 105.98 122.174 107.386 122.754C109.249 123.531 111.351 123.531 113.22 122.754C114.626 122.174 115.884 120.916 118.4 118.4C120.91 115.884 122.168 114.626 122.754 113.22C123.524 111.352 123.524 109.254 122.754 107.386C122.168 105.98 120.91 104.722 118.4 102.206L94.1094 77.922L77.9219 94.1157Z" fill="#A478ED"/>
</svg>
